<svg width="37" height="58" viewBox="0 0 37 58" fill="none" xmlns="http://www.w3.org/2000/svg">
<path d="M25.3008 13.5848C25.835 12.9089 26.3572 12.2131 26.8645 11.5073V6.41858C25.5954 6.90889 24.2886 7.38475 22.9486 7.84314V16.4259C23.5519 15.7072 24.3253 14.7759 25.3008 13.5848ZM18.89 20.6308L19.7228 19.8377L19.5174 20.9894C19.4528 21.3525 19.3785 21.7311 19.3009 22.1062L21.0792 18.6007L21.1154 18.5613C21.1182 18.5583 21.2041 18.4635 21.3868 18.2555V6.12329C20.3675 6.46946 19.3279 6.80465 18.2642 7.12288C17.999 7.20219 17.7352 7.27701 17.471 7.35382V22.1002C18.1427 21.3959 18.7473 20.7669 18.89 20.6308ZM14.3468 25.2212C14.5474 25.0047 14.7119 24.8281 14.829 24.7029L14.8179 21.981L15.9087 22.798V13.0321C14.5904 13.3888 13.2841 13.7219 11.9928 14.0312V19.8621L14.3305 21.6129L14.3468 25.2212Z" fill="#1D2832"/>
<path d="M33.7769 5.22937C33.7311 5.72618 33.6617 6.17858 33.5792 6.5856C33.0951 7.7034 32.5763 8.80175 32.0237 9.87915C32.5372 9.37337 33.0377 8.85911 33.5243 8.33687C33.4466 8.95937 33.3338 9.6088 33.1747 10.2732C32.5194 13.0186 30.2729 16.146 30.2729 16.146L33.1834 13.9653C33.1834 13.9653 32.3656 17.4045 31.5743 19.2096C28.9632 26.71 24.2537 28.7875 24.2537 28.7875L27.8354 27.1694L25.3203 30.3876C25.3203 30.3876 22.7671 33.5131 20.7318 34.9242C19.3517 35.8839 16.7537 37.4007 12.9145 38.1903C11.29 38.5325 8.11044 37.8152 6.99465 37.8531C7.27143 37.5748 16.0892 32.6651 19.6743 29.1636C26.4091 23.5561 28.9777 17.2898 30.8621 9.93052C28.6691 15.1484 26.5899 22.0004 18.9684 28.5955C14.7309 32.2621 10.6144 34.7915 7.2314 37.055C5.02538 38.5015 2.30824 39.7805 0.799953 40.4389C2.45483 39.1959 4.12562 38.1783 4.12562 38.1783C4.12562 38.1783 6.26847 36.8785 7.13786 36.1682C9.06132 34.596 8.59263 33.8992 8.35925 32.3055C8.90075 32.516 9.20501 32.8397 9.43501 33.1834C9.59896 32.6956 9.56713 32.6512 9.91865 31.8027C10.6795 29.9736 11.5711 29.0763 11.9834 28.5112C12.7718 27.4293 14.7608 25.1154 14.7608 25.1154C14.7608 25.1154 13.8861 28.9601 14.0645 28.7875C14.2429 28.6144 15.5743 24.6515 15.5743 24.6515C15.5743 24.6515 18.7987 21.2482 19.1454 20.9185C18.8122 22.785 18.2335 25.049 18.2335 25.049L21.389 18.83C21.389 18.83 22.4257 17.6998 25.5884 13.8371C26.6738 12.4654 27.5167 11.2703 28.102 10.4049C28.1281 11.3217 28.145 12.2325 28.1531 13.1373C28.3967 12.0699 28.7588 10.7151 29.2839 9.20727C29.5023 8.57979 29.9329 7.40213 30.5516 6.05139C31.1456 4.75652 32.1341 2.82019 33.5628 0.926763C33.7625 2.05454 33.9293 3.56839 33.7769 5.22937ZM33.9409 6.70681L33.9491 6.66591C34.0402 6.214 34.1092 5.74313 34.153 5.26579C34.2803 3.87913 34.2066 2.39572 33.9346 0.856432L33.7832 0L33.2653 0.686343C32.1312 2.18921 31.1032 3.93799 30.2102 5.88429C29.6224 7.1667 29.1889 8.3274 28.9285 9.07509C28.7708 9.5275 28.6218 9.9839 28.481 10.4423C28.4806 10.4263 28.4468 9.21376 28.4468 9.21376L27.793 10.1804C27.0075 11.3416 26.1675 12.4883 25.3 13.5847C22.186 17.3875 21.1252 18.5497 21.1146 18.5612L21.0785 18.6006L19.3001 22.1061C19.3778 21.731 19.452 21.3519 19.5166 20.9893L19.7221 19.8376L18.8893 20.6307C18.5397 20.9639 15.4363 24.239 15.3047 24.3781L15.2454 24.441C15.2454 24.441 15.079 24.9343 15.0086 25.1408V24.5083C14.9272 24.6031 12.4704 27.1943 11.682 28.2757C11.6044 28.382 11.5094 28.5002 11.4014 28.6349C10.925 29.2279 10.2056 30.1243 9.57147 31.6486C9.41958 32.0152 9.33616 32.2407 9.2783 32.4127C9.08012 32.2367 8.82697 32.0701 8.49281 31.9394L7.96626 31.8411C7.96626 31.8411 8.15432 33.3974 8.17167 33.6508C8.22472 34.4104 8.0058 34.9795 6.78104 35.8634C1.66404 39.557 0 40.8618 0 40.8618C0.869389 40.591 1.67609 40.3306 3.01513 39.7291C3.99832 39.2872 6.02979 38.2761 6.02979 38.2761L7.0067 38.2432L7.08385 38.2422C7.47298 38.2422 8.0926 38.3205 8.81009 38.4118C9.77737 38.535 10.8734 38.6741 11.8219 38.6741C12.2862 38.6741 12.6686 38.6412 12.9883 38.5739C16.7127 37.8077 19.4014 36.3896 20.942 35.2489C24.4895 32.6212 27.1782 28.5785 27.7655 27.7056C28.2125 27.0397 28.5153 26.5614 28.5153 26.5614L27.3021 26.9839C28.8219 25.482 30.6311 23.0703 31.9186 19.3712C32.7147 17.5536 33.5161 14.2002 33.5498 14.0586L33.7962 13.0231L31.7276 14.5733C32.4022 13.4106 33.1887 11.8459 33.5416 10.367C33.694 9.73101 33.8141 9.06462 33.8989 8.38725L34.046 7.21458L33.4105 7.89644C33.5865 7.51336 33.7576 7.12929 33.924 6.74521L33.9409 6.70681Z" fill="#1D2832"/>
<path d="M31.9083 45.5057L30.373 44.9585L19.015 50.5809L7.6575 44.9585L6.12317 45.5057L19.015 51.9127L31.9083 45.5057Z" fill="#1D2832"/>
<path d="M27.4813 26.8034C27.421 26.8647 27.3612 26.9251 27.3019 26.984L27.4803 26.9216L27.4813 26.8034ZM7.30067 32.989L7.35709 35.4061C8.07604 34.7647 8.21491 34.2714 8.17151 33.6509C8.15415 33.3975 7.9661 31.8412 7.9661 31.8412L8.49265 31.9395C8.82681 32.0697 9.07996 32.2368 9.27814 32.4128C9.33552 32.2408 9.41942 32.0153 9.57131 31.6487C9.72947 31.2691 9.89293 30.9279 10.0564 30.6212C9.98695 30.5678 9.91848 30.5149 9.84808 30.4616C9.60024 30.275 9.34998 30.089 9.09731 29.9034C8.84465 29.7179 8.58957 29.5328 8.33256 29.3492C8.07555 29.1657 7.81662 28.9831 7.55527 28.8016L7.42219 16.9272L10.487 19.2252L10.5733 29.7513C10.6861 29.5792 10.797 29.4216 10.9031 29.2769L10.8187 18.9803L7.07597 16.176L7.23076 29.046L7.30067 32.989ZM15.0085 24.5084V25.1409C15.0451 25.0337 15.1073 24.8496 15.1589 24.697L15.1517 22.7193L16.1614 23.4749C16.2482 23.3836 16.3384 23.2889 16.4319 23.1901L14.8171 21.981L14.8281 24.703C14.9313 24.5922 14.9964 24.5224 15.0085 24.5084ZM4.93264 27.0488C4.57196 26.8184 4.20839 26.5899 3.84144 26.363C3.4745 26.1365 3.10466 25.9115 2.7324 25.6891C2.35967 25.4661 1.98453 25.2457 1.60794 25.0282L1.38565 12.4042L5.84832 15.7471L6.00214 27.7436C5.64917 27.5107 5.29283 27.2787 4.93264 27.0488ZM6.48625 35.871L6.4255 32.6732L6.34497 28.4404L6.17765 15.5037L1.03027 11.6465L1.28391 25.298L1.44158 31.2103L1.72222 39.5606C2.74446 38.7999 4.28313 37.6682 6.49204 36.0725L6.48625 35.871ZM36.0566 47.2934C35.8227 49.5969 24.4175 53.7508 21.6979 54.503C19.5584 55.0951 19.0463 56.2498 19.0164 56.3201C19.0155 56.3231 19.015 56.3231 19.014 56.3201C18.9846 56.2498 18.4721 55.0951 16.3326 54.503C13.613 53.7508 2.20778 49.5969 1.97392 47.2934C1.97344 47.2889 1.97054 47.2899 1.97054 47.2939V48.8985C1.97054 51.1865 13.5851 55.4193 16.3326 56.1795C18.5396 56.79 19.0155 58.0001 19.0155 58.0001C19.0155 58.0001 19.4909 56.79 21.6979 56.1795C24.4459 55.4193 36.0604 51.1865 36.0604 48.8985V47.2939C36.0604 47.2899 36.057 47.2889 36.0566 47.2934Z" fill="#1D2832"/>
<path d="M31.9083 47.7801L30.373 47.2324L19.015 52.8553L7.6575 47.2324L6.12317 47.7801L19.015 54.1866L31.9083 47.7801Z" fill="#1D2832"/>
<path d="M19.015 49.2083L6.12076 42.8252L19.015 38.3725L31.9088 42.8252L19.015 49.2083ZM33.4981 14.2706C33.4629 14.4138 33.4108 14.6213 33.3452 14.8752L36.6444 12.4042L36.4221 25.0282C36.045 25.2457 35.6703 25.4661 35.2976 25.6891C34.9254 25.9115 34.5555 26.1365 34.1886 26.363C33.8216 26.5899 33.458 26.8184 33.0974 27.0488C32.7372 27.2787 32.3804 27.5107 32.0279 27.7436L32.1421 18.8217C32.0679 19.0157 31.9927 19.2002 31.9179 19.3713C31.8784 19.4846 31.8384 19.5968 31.7979 19.708L31.685 28.4404L31.6045 32.6732L31.5438 35.871L31.3779 42.2007L30.5244 41.9059L30.7293 32.989L30.7992 29.046L30.8851 21.8723C30.7732 22.1032 30.6599 22.3277 30.5447 22.5457L30.4743 28.8016C30.2134 28.9831 29.9545 29.1657 29.697 29.3492C29.44 29.5328 29.1854 29.7179 28.9322 29.9034C28.68 30.0885 28.4298 30.275 28.1814 30.4616C27.9341 30.6486 27.6891 30.8357 27.4466 31.0232L27.4697 28.1412C27.3733 28.2823 27.26 28.4454 27.1322 28.627L27.1066 31.7729L27.0425 37.0751L26.9784 40.6814L26.3318 40.4579L26.4176 34.832L26.4456 32.3016L26.4663 29.5413C26.3612 29.6814 26.2503 29.8271 26.135 29.9757L26.1206 32.0787C25.9354 32.2293 25.7512 32.3809 25.5689 32.5331C25.3862 32.6852 25.2054 32.8378 25.026 32.991C24.8466 33.1441 24.6692 33.2972 24.4932 33.4508C24.3172 33.6045 24.1436 33.7581 23.9719 33.9117L23.9787 32.5101C23.8702 32.6248 23.7598 32.7396 23.6484 32.8538L23.6397 34.7138L23.6175 37.9899L23.6021 39.5157L23.1252 39.3511L23.1493 36.683L23.1585 35.1602L23.1657 33.3371C23.0577 33.4424 22.9492 33.5476 22.8383 33.6514L22.8335 34.9572C22.6965 35.0864 22.561 35.2156 22.4275 35.3443C22.2944 35.473 22.1627 35.6017 22.033 35.7298C21.9033 35.858 21.7755 35.9857 21.6502 36.1124C21.5243 36.2396 21.4004 36.3663 21.2784 36.492L21.2813 34.9906C21.1733 35.0744 21.0643 35.1572 20.9549 35.2385L20.951 37.3719L20.9486 38.3006L20.9481 38.5989L19.015 37.9315L17.0814 38.5989L17.0809 38.3006L17.0785 37.3719V37.3504C16.4097 37.6198 15.6807 37.8747 14.8937 38.1026L14.9043 39.3511L14.4274 39.5157L14.4144 38.2363C13.9573 38.3585 13.4819 38.4722 12.9876 38.574C12.6679 38.6408 12.2856 38.6737 11.8217 38.6737C11.7725 38.6737 11.7219 38.6722 11.6727 38.6712L11.6983 40.4579L11.0483 40.6824L11.016 38.6453C10.283 38.5984 9.51249 38.5012 8.80945 38.4119C8.2747 38.344 7.79492 38.2832 7.42364 38.2567L7.50175 41.9074L6.64779 42.2022L6.55039 38.2587L6.02914 38.2762C6.02914 38.2762 3.99816 39.2873 3.01449 39.7292C2.53134 39.9467 2.1181 40.1188 1.74585 40.2634L1.97007 46.9428L6.01757 45.9252L5.03535 45.4389L6.72784 44.8543L6.69746 43.5744L19.015 49.6722L31.3316 43.5749L31.3012 44.8543L32.9942 45.4389L32.012 45.9252L36.0595 46.9428L36.5884 31.2103L36.7456 25.298L36.9997 11.6465L33.4981 14.2706ZM11.6814 28.2758C11.7392 28.1965 11.8067 28.1082 11.881 28.0145L11.8275 20.2288L14.0002 21.8558L14.0181 25.5764C14.1338 25.4502 14.2437 25.3309 14.3455 25.2212L14.3291 21.6129L11.488 19.4851L11.555 28.4414C11.6009 28.3831 11.6433 28.3282 11.6814 28.2758Z" fill="#1D2832"/>
<path d="M19.0147 49.2082L6.12048 42.8251L19.0147 38.3723L31.9085 42.8251L19.0147 49.2082Z" fill="#1D2832"/>
</svg>
